# xmcd CD database file
#
# Track frame offsets:
#	150
#	12859
#	24452
#	40369
#	57682
#	69413
#	82318
#	100369
#	115519
#	126109
#	142354
#	157798
#	170402
#
# Disc length: 2651 seconds
#
# Revision: 0
# Processed by: cddbd v1.5.2PL0 Copyright (c) Steve Scherf et al.
# Submitted via: CDex 1.50beta10
#
DISCID=b30a590d
DTITLE=Eddy Clearwater - Rock 'N' Roll City (Featuring Los Straightjackets)
DYEAR=2003
DGENRE=Blues
TTITLE0=You're Humbuggin' Me
TTITLE1=Ding Dong Daddy
TTITLE2=Lonesome Town
TTITLE3=Hillbilly Blues
TTITLE4=Monkey Paw
TTITLE5=Back Down To Earth
TTITLE6=Before The Song Is Over
TTITLE7=Old Time Rocker
TTITLE8=Midnight Groove
TTITLE9=I Love You
TTITLE10=Let The Four Winds Blow
TTITLE11=Peggy Sue
TTITLE12=Good Time Coming
EXTD=YEAR: 2003
EXTT0=
EXTT1=
EXTT2=
EXTT3=
EXTT4=
EXTT5=
EXTT6=
EXTT7=
EXTT8=
EXTT9=
EXTT10=
EXTT11=
EXTT12=
PLAYORDER=
